<?xml version="1.0" encoding="UTF-8" standalone="no"?>
<!-- Created with Inkscape (http://www.inkscape.org/) -->

<svg
   width="210mm"
   height="297mm"
   viewBox="0 0 210 297"
   version="1.1"
   id="svg5"
   inkscape:version="1.1.1 (c3084ef, 2021-09-22)"
   sodipodi:docname="poem_base.svg"
   xmlns:inkscape="http://www.inkscape.org/namespaces/inkscape"
   xmlns:sodipodi="http://sodipodi.sourceforge.net/DTD/sodipodi-0.dtd"
   xmlns="http://www.w3.org/2000/svg"
   xmlns:svg="http://www.w3.org/2000/svg">
  <sodipodi:namedview
     id="namedview7"
     pagecolor="#ffffff"
     bordercolor="#666666"
     borderopacity="1.0"
     inkscape:pageshadow="2"
     inkscape:pageopacity="0.0"
     inkscape:pagecheckerboard="0"
     inkscape:document-units="mm"
     showgrid="false"
     showguides="true"
     inkscape:guide-bbox="true"
     inkscape:zoom="3.7249532"
     inkscape:cx="75.437189"
     inkscape:cy="965.91817"
     inkscape:window-width="1321"
     inkscape:window-height="786"
     inkscape:window-x="0"
     inkscape:window-y="25"
     inkscape:window-maximized="0"
     inkscape:current-layer="layer2">
    <sodipodi:guide
       position="-83.640808,177"
       orientation="0,1"
       id="guide9"
       inkscape:label=""
       inkscape:locked="false"
       inkscape:color="rgb(0,0,255)" />
    <sodipodi:guide
       position="-74.124788,157"
       orientation="0,1"
       id="guide11"
       inkscape:label=""
       inkscape:locked="false"
       inkscape:color="rgb(0,0,255)" />
    <sodipodi:guide
       position="20,177.00001"
       orientation="-1,0"
       id="guide1142"
       inkscape:label=""
       inkscape:locked="false"
       inkscape:color="rgb(0,0,255)" />
    <sodipodi:guide
       position="-81.674998,277"
       orientation="0,1"
       id="guide1144"
       inkscape:label=""
       inkscape:locked="false"
       inkscape:color="rgb(0,0,255)" />
    <sodipodi:guide
       position="-70.007141,57"
       orientation="0,1"
       id="guide1146"
       inkscape:label=""
       inkscape:locked="false"
       inkscape:color="rgb(0,0,255)" />
    <sodipodi:guide
       position="110,199.94465"
       orientation="-1,0"
       id="guide1177"
       inkscape:label=""
       inkscape:locked="false"
       inkscape:color="rgb(0,0,255)" />
    <sodipodi:guide
       position="90,251.91965"
       orientation="-1,0"
       id="guide1179"
       inkscape:label=""
       inkscape:locked="false"
       inkscape:color="rgb(0,0,255)" />
    <sodipodi:guide
       position="180,206.83929"
       orientation="-1,0"
       id="guide1181"
       inkscape:label=""
       inkscape:locked="false"
       inkscape:color="rgb(0,0,255)" />
  </sodipodi:namedview>
  <defs
     id="defs2" />
  <g
     inkscape:label="Layer 1"
     inkscape:groupmode="layer"
     id="layer1"
     sodipodi:insensitive="true">
    <rect
       style="fill:#d5f6ff;stroke:#000000;stroke-width:0.529167;stroke-miterlimit:4;stroke-dasharray:none"
       id="rect35"
       width="70"
       height="100"
       x="20"
       y="20.000004" />
    <rect
       style="fill:#d5f6ff;stroke:#000000;stroke-width:0.529167;stroke-miterlimit:4;stroke-dasharray:none"
       id="rect1136"
       width="70"
       height="100"
       x="110"
       y="20.000004" />
    <rect
       style="fill:#d5f6ff;stroke:#000000;stroke-width:0.529167;stroke-miterlimit:4;stroke-dasharray:none"
       id="rect1138"
       width="70"
       height="100"
       x="20"
       y="140" />
    <rect
       style="fill:#d5f6ff;stroke:#000000;stroke-width:0.529167;stroke-miterlimit:4;stroke-dasharray:none"
       id="rect1140"
       width="70"
       height="100"
       x="110"
       y="140" />
  </g>
  <g
     inkscape:groupmode="layer"
     id="layer2"
     inkscape:label="Cut Mark">
    <path
       style="fill:#d5f6ff;stroke:#000000;stroke-width:0.529167;stroke-miterlimit:4;stroke-dasharray:none"
       d="M 20,16.052774 C 19.959423,-2.5570791 20,-2.5570791 20,-2.5570791 M -5.1851881,20.000001 c 21.2379621,0.03045 21.2379621,0 21.2379621,0 m 81.045201,0 c 6.605785,-0.04058 6.605785,0 6.605785,0 M 90,0 c -0.07605,14.205995 0,14.205995 0,14.205995 M 110,0 c -0.0456,13.779815 0,13.779815 0,13.779815 m 75.10411,6.220186 c 28.9092,0.03045 28.9092,0 28.9092,0 M 180,16.194834 c 0.061,-19.036033 0,-18.965003 0,-18.965003"
       id="path1370" />
    <path
       style="fill:#d5f6ff;stroke:#000000;stroke-width:0.529167;stroke-miterlimit:4;stroke-dasharray:none"
       d="m 186.38265,120 c 27.34654,0.0407 27.34654,0 27.34654,0 m -27.27551,20 c 27.20448,-0.14198 27.20448,0 27.20448,0 M 180,128.35116 c -0.0811,4.83004 0,4.83004 0,4.83004 M 184.81999,240 c 30.25877,-0.13178 30.25877,0 30.25877,0 M 180,244.41414 c -0.01,28.98023 0,28.9092 0,28.9092"
       id="path1372" />
    <path
       style="fill:#d5f6ff;stroke:#000000;stroke-width:0.529167;stroke-miterlimit:4;stroke-dasharray:none"
       d="m 94.327804,240 c 10.654496,0 10.654496,0 10.654496,0"
       id="path1374" />
    <path
       style="fill:#d5f6ff;stroke:#000000;stroke-width:0.529167;stroke-miterlimit:4;stroke-dasharray:none"
       d="m 110,247.3974 c 0,27.77273 0,27.77273 0,27.77273"
       id="path1376" />
    <path
       style="fill:#d5f6ff;stroke:#000000;stroke-width:0.529167;stroke-miterlimit:4;stroke-dasharray:none"
       d="m 89.999999,247.61049 c 0,26.13904 0,26.13904 0,26.13904"
       id="path1378" />
    <path
       style="fill:#d5f6ff;stroke:#000000;stroke-width:0.529167;stroke-miterlimit:4;stroke-dasharray:none"
       d="m 20,245.76371 c 0,25.99697 0,25.99697 0,25.99697"
       id="path1380" />
    <path
       style="fill:#d5f6ff;stroke:#000000;stroke-width:0.529167;stroke-miterlimit:4;stroke-dasharray:none"
       d="m 13.566725,240 c -26.49418,0 -26.49418,0 -26.49418,0"
       id="path1382" />
  </g>
</svg>
